<?xml version="1.0" encoding="UTF-8" standalone="no"?>
<svg
   xmlns:dc="http://purl.org/dc/elements/1.1/"
   xmlns:cc="http://creativecommons.org/ns#"
   xmlns:rdf="http://www.w3.org/1999/02/22-rdf-syntax-ns#"
   xmlns:svg="http://www.w3.org/2000/svg"
   xmlns="http://www.w3.org/2000/svg"
   xmlns:sodipodi="http://sodipodi.sourceforge.net/DTD/sodipodi-0.dtd"
   xmlns:inkscape="http://www.inkscape.org/namespaces/inkscape"
   width="170.94179mm"
   height="40.995598mm"
   viewBox="0 0 170.94179 40.995598"
   version="1.1"
   id="svg8"
   inkscape:version="1.0.2 (e86c870879, 2021-01-15, custom)"
   sodipodi:docname="logo full.svg">
  <defs
     id="defs2" />
  <sodipodi:namedview
     id="base"
     pagecolor="#ffffff"
     bordercolor="#666666"
     borderopacity="1.0"
     inkscape:pageopacity="0.0"
     inkscape:pageshadow="2"
     inkscape:zoom="2.0000001"
     inkscape:cx="313.48139"
     inkscape:cy="82.204698"
     inkscape:document-units="mm"
     inkscape:current-layer="layer1"
     inkscape:document-rotation="0"
     showgrid="false"
     fit-margin-top="0"
     fit-margin-left="0"
     fit-margin-right="0"
     fit-margin-bottom="0"
     inkscape:window-width="3440"
     inkscape:window-height="1377"
     inkscape:window-x="-8"
     inkscape:window-y="-8"
     inkscape:window-maximized="1" />
  <metadata
     id="metadata5">
    <rdf:RDF>
      <cc:Work
         rdf:about="">
        <dc:format>image/svg+xml</dc:format>
        <dc:type
           rdf:resource="http://purl.org/dc/dcmitype/StillImage" />
        <dc:title />
      </cc:Work>
    </rdf:RDF>
  </metadata>
  <g
     inkscape:label="Layer 1"
     inkscape:groupmode="layer"
     id="layer1"
     transform="translate(-20.136151,-90.546155)">
    <g
       aria-label="releese"
       id="text835"
       style="font-style:normal;font-weight:normal;font-size:50.8px;line-height:1.25;font-family:sans-serif;letter-spacing:0px;word-spacing:0px;fill:#000000;fill-opacity:1;stroke:none;stroke-width:0.264583">
      <path
         d="m 33.750551,111.22175 q -2.794,0 -4.7752,1.9812 -1.9812,1.9304 -1.9812,4.7244 v 12.8524 h -6.858 v -12.8524 q 0,-5.6896 3.9624,-9.6012 3.9624,-3.96239 9.652,-3.96239 z"
         style="font-style:normal;font-variant:normal;font-weight:normal;font-stretch:normal;font-size:50.8px;font-family:moderna;-inkscape-font-specification:moderna;stroke-width:0.264583"
         id="path832" />
      <path
         d="m 64.332104,117.92735 q 0,1.016 -0.1524,2.032 H 44.316905 q 0.6604,2.1336 2.4384,3.4544 1.778,1.27 4.0132,1.27 3.098799,0 5.130799,-2.3876 l 4.1656,5.5372 q -3.9116,3.7084 -9.296399,3.7084 -5.7404,0 -9.7028,-3.9116 -3.9116,-3.9624 -3.9116,-9.7028 0,-5.6896 3.9624,-9.6012 3.9624,-3.96239 9.652,-3.96239 5.689599,0 9.601199,3.96239 3.9624,3.9116 3.9624,9.6012 z m -7.6708,-3.0988 q -1.8796,-3.6068 -5.892799,-3.6068 -4.064,0 -5.9436,3.6068 z m 7.5184,5.08 z"
         style="font-style:normal;font-variant:normal;font-weight:normal;font-stretch:normal;font-size:50.8px;font-family:moderna;-inkscape-font-specification:moderna;stroke-width:0.264583"
         id="path834" />
      <path
         d="m 74.746081,130.77975 h -6.858 V 90.546155 h 6.858 z"
         style="font-style:normal;font-variant:normal;font-weight:normal;font-stretch:normal;font-size:50.8px;font-family:moderna;-inkscape-font-specification:moderna;stroke-width:0.264583"
         id="path836" />
      <path
         d="m 105.42921,117.92735 q 0,1.016 -0.1524,2.032 h -19.8628 q 0.6604,2.1336 2.4384,3.4544 1.778,1.27 4.0132,1.27 3.0988,0 5.130799,-2.3876 l 4.165601,5.5372 q -3.911601,3.7084 -9.2964,3.7084 -5.7404,0 -9.7028,-3.9116 -3.9116,-3.9624 -3.9116,-9.7028 0,-5.6896 3.9624,-9.6012 3.9624,-3.96239 9.652,-3.96239 5.689599,0 9.6012,3.96239 3.9624,3.9116 3.9624,9.6012 z m -7.670801,-3.0988 q -1.879599,-3.6068 -5.892799,-3.6068 -4.064,0 -5.9436,3.6068 z m 7.518401,5.08 z"
         style="font-style:normal;font-variant:normal;font-weight:normal;font-stretch:normal;font-size:50.8px;font-family:moderna;-inkscape-font-specification:moderna;stroke-width:0.264583"
         id="path838" />
      <path
         d="m 136.16318,117.92735 q 0,1.016 -0.1524,2.032 h -19.8628 q 0.6604,2.1336 2.4384,3.4544 1.778,1.27 4.0132,1.27 3.0988,0 5.1308,-2.3876 l 4.1656,5.5372 q -3.9116,3.7084 -9.2964,3.7084 -5.7404,0 -9.7028,-3.9116 -3.9116,-3.9624 -3.9116,-9.7028 0,-5.6896 3.9624,-9.6012 3.9624,-3.96239 9.652,-3.96239 5.6896,0 9.6012,3.96239 3.9624,3.9116 3.9624,9.6012 z m -7.6708,-3.0988 q -1.8796,-3.6068 -5.8928,-3.6068 -4.064,0 -5.9436,3.6068 z m 7.5184,5.08 z"
         style="font-style:normal;font-variant:normal;font-weight:normal;font-stretch:normal;font-size:50.8px;font-family:moderna;-inkscape-font-specification:moderna;stroke-width:0.264583"
         id="path840" />
      <path
         d="m 160.34396,123.00735 q 0,2.4384 -1.6256,4.4196 -3.2512,3.9624 -9.2456,3.81 -2.3876,-0.0508 -5.2324,-1.0668 -2.794,-1.016 -4.572,-2.54 l 3.81,-4.9276 q 2.7432,2.5908 5.842,2.5908 h 0.1524 q 1.27,0 2.286,-0.4572 1.3208,-0.6096 1.3208,-1.7272 v -0.2032 q -0.1524,-1.1684 -1.5748,-1.6764 -0.5588,-0.1016 -2.3876,-0.4572 -2.286,-0.4572 -3.8608,-1.1176 -4.6228,-1.9812 -4.6228,-6.9596 0,-4.7752 4.7244,-7.16279 2.0828,-1.0668 4.5212,-1.1176 2.54,-0.0508 5.2832,0.8636 3.1496,1.0668 4.4704,2.79399 l -4.572,4.1148 q -1.778,-1.778 -3.8608,-1.778 -3.2512,0 -3.2512,2.1336 v 0.1016 q 0,1.016 2.6416,1.7272 0.2032,0.0508 3.3528,0.6604 6.4008,1.2192 6.4008,7.8232 z"
         style="font-style:normal;font-variant:normal;font-weight:normal;font-stretch:normal;font-size:50.8px;font-family:moderna;-inkscape-font-specification:moderna;stroke-width:0.264583"
         id="path842" />
      <path
         d="m 191.07794,117.92735 q 0,1.016 -0.1524,2.032 h -19.8628 q 0.6604,2.1336 2.4384,3.4544 1.778,1.27 4.0132,1.27 3.0988,0 5.1308,-2.3876 l 4.1656,5.5372 q -3.9116,3.7084 -9.2964,3.7084 -5.7404,0 -9.7028,-3.9116 -3.9116,-3.9624 -3.9116,-9.7028 0,-5.6896 3.9624,-9.6012 3.9624,-3.96239 9.652,-3.96239 5.6896,0 9.6012,3.96239 3.9624,3.9116 3.9624,9.6012 z m -7.6708,-3.0988 q -1.8796,-3.6068 -5.8928,-3.6068 -4.064,0 -5.9436,3.6068 z m 7.5184,5.08 z"
         style="font-style:normal;font-variant:normal;font-weight:normal;font-stretch:normal;font-size:50.8px;font-family:moderna;-inkscape-font-specification:moderna;stroke-width:0.264583"
         id="path844" />
    </g>
  </g>
</svg>
