<svg width="864" height="863" viewBox="0 0 864 863" fill="none" xmlns="http://www.w3.org/2000/svg">
<path d="M0 215.5C0 96.4826 96.4826 0 215.5 0V0C334.517 0 431 96.7323 431 215.75V215.75C431 335.043 334.294 432 215 432H0L0 215.5Z" fill="#1CC8EE"/>
<path d="M431.5 646C431.5 526.983 527.983 430.5 647 430.5V430.5C766.017 430.5 862.5 527.232 862.5 646.25V646.25C862.5 765.543 765.794 862.5 646.5 862.5H431.5V646Z" fill="#1CC8EE"/>
<path d="M431.5 216.5C431.5 97.2065 528.457 0.5 647.75 0.5V0.5C766.768 0.5 863.5 96.9826 863.5 216V216C863.5 335.017 767.017 431.5 648 431.5H431.5V216.5Z" fill="#5F2EEA"/>
<path d="M0.5 647C0.5 527.983 96.9826 431.5 216 431.5H431.5V647C431.5 766.017 335.017 862.5 216 862.5V862.5C96.9826 862.5 0.5 766.017 0.5 647V647Z" fill="#5F2EEA"/>
</svg>
